<svg id="Capa_1" enable-background="new 0 0 512 512" height="512" viewBox="0 0 512 512" width="512" xmlns="http://www.w3.org/2000/svg"><g><g><g><g><g><g><g><circle cx="256" cy="256" fill="#ffce00" r="256"/></g></g></g></g></g></g><path d="m512 256c0-7.272-.303-14.474-.898-21.593l-70.57-70.57-21.007 23.537-110.374-110.374-238.995 173 106.877 106.877-59.028 62.795 87.311 87.31c16.383 3.291 33.332 5.018 50.684 5.018 141.385 0 256-114.615 256-256z" fill="#fdba12"/><g><path d="m327.955 125.501c0 39.74-32.215 145.261-71.955 145.261s-71.955-105.521-71.955-145.261 32.215-71.955 71.955-71.955 71.955 32.215 71.955 71.955z" fill="#fff"/></g><g><path d="m327.955 125.501c0-39.699-32.151-71.887-71.835-71.952v217.208c39.685-.213 71.836-105.556 71.835-145.256z" fill="#e9edf5"/></g><g><path d="m414.4 272.8c-35.903 17.036-145.049 33.166-162.088-2.738s64.482-110.246 100.385-127.282 78.821-1.741 95.859 34.164c17.04 35.903 1.747 78.82-34.156 95.856z" fill="#dce1eb"/></g><g><path d="m399.139 324.167c-20.046-25.131-83.419-70.769-123.348-74.167-6.288 5.413-12.927 8.561-19.79 8.561-2.063 0-4.105-.285-6.124-.829-26.389 28.189 12.658 125.968 36.747 156.168 24.779 31.064 70.053 36.16 101.124 11.381 31.069-24.78 36.169-70.05 11.391-101.114z" fill="#cdd2e1"/></g><g><path d="m256 258.561c-6.864 0-13.503-3.148-19.79-8.561-39.929 3.398-103.303 49.036-123.349 74.167-24.779 31.064-19.678 76.334 11.392 101.114 31.07 24.779 76.345 19.683 101.124-11.381 24.088-30.199 63.135-127.979 36.747-156.167-2.019.543-4.061.828-6.124.828z" fill="#fff"/></g><g><path d="m262.124 257.732c-1.979.534-3.981.814-6.003.825l-.121 96.294c14.037-37.52 22.031-80.127 6.124-97.119z" fill="#e9edf5"/></g><g><path d="m256 270.762c-30.431 0-56.45-61.878-66.97-108.71-11.132-8.621-21.599-15.416-29.728-19.273-35.903-17.036-78.821-1.741-95.859 34.164-17.039 35.904-1.746 78.821 34.157 95.857 35.758 16.967 144.168 33.036 161.876-2.306-1.151.177-2.31.268-3.476.268z" fill="#f2f6fc"/></g><g><g><g><g><g><g><circle cx="256" cy="256" fill="#c78ff5" r="42.298"/></g></g></g></g></g></g><g><g><g><g><g><g><path d="m298.298 256c0-23.32-18.873-42.229-42.177-42.295v84.589c23.304-.065 42.177-18.974 42.177-42.294z" fill="#a260e5"/></g></g></g></g></g></g></g></svg>