<svg id="Capa_1" enable-background="new 0 0 512 512" height="512" viewBox="0 0 512 512" width="512" xmlns="http://www.w3.org/2000/svg"><g><g><g><g><g><g><g><circle cx="256" cy="256" fill="#ff73a5" r="256"/></g></g></g></g></g></g><path d="m512 261.283-121.265-120.946-20.235 17.425-83.365-83.058-55.339 57.853 35.073 34.548-10.432 46.852-74.392-74.134-56.861 56.955 144.642 144.093-.117 1.442-88.895-88.536-55.135 58.712 135.514 135.029-2.464 64.482c138.396-1.417 250.483-112.653 253.271-250.717z" fill="#ff468c"/><path d="m369.791 178.035-19.342-22.933-79.449 67.005v-121.793h-30v124.309l-79.242-69.343-19.756 22.576 98.998 86.632v75.415l-79.242-69.343-19.756 22.576 98.998 86.632v131.8c4.963.287 9.965.432 15 .432s10.037-.146 15-.432v-134.937l98.791-83.316-19.342-22.933-79.449 67.005v-76.036z" fill="#a7e340"/><path d="m369.791 178.035-19.342-22.933-79.449 67.005v-121.793l-14.958 8.869v402.817c5.021-.001 10.008-.146 14.958-.432v-134.937l98.791-83.316-19.342-22.933-79.449 67.005v-76.036z" fill="#86c42b"/><g><circle cx="256" cy="100.314" fill="#ffce00" r="40.314"/></g><g><path d="m296.314 100.314c0-22.251-18.027-40.29-40.272-40.313v80.626c22.246-.023 40.272-18.062 40.272-40.313z" fill="#fdba12"/></g><g><g><circle cx="360.12" cy="166.568" fill="#fdba12" r="40.314"/></g><g><circle cx="151.88" cy="166.568" fill="#ffce00" r="40.314"/></g></g><g><g><circle cx="360.12" cy="281.848" fill="#fdba12" r="40.314"/></g><g><circle cx="151.88" cy="281.848" fill="#ffce00" r="40.314"/></g></g></g></svg>