<svg id="Capa_1" enable-background="new 0 0 512 512" height="512" viewBox="0 0 512 512" width="512" xmlns="http://www.w3.org/2000/svg"><g><g><g><g><g><g><g><circle cx="256" cy="256" fill="#a7e340" r="256"/></g></g></g></g></g></g><path d="m367.495 163.284-72.887-72.887-197.575 209.645 62.885 62.885-49.243 38.758 107.545 107.546c12.329 1.824 24.944 2.769 37.78 2.769 141.385 0 256-114.615 256-256 0-12.544-.903-24.877-2.646-36.938l-108.028-108.028z" fill="#86c42b"/><g><path d="m256 253.641-30.892-30.892c-38.942-38.942-38.942-102.079 0-141.02l30.892-30.892 30.892 30.892c38.942 38.942 38.942 102.079 0 141.02z" fill="#fff"/></g><g><path d="m286.892 81.729-30.892-30.892v202.804l30.892-30.892c38.942-38.941 38.942-102.078 0-141.02z" fill="#e9edf5"/></g><g><path d="m256 461.881-30.892-30.892c-38.942-38.942-38.942-102.079 0-141.02l30.892-30.892 30.892 30.892c38.942 38.942 38.942 102.079 0 141.02z" fill="#fff"/></g><g><path d="m286.892 289.969-30.892-30.892v202.804l30.892-30.891c38.942-38.942 38.942-102.079 0-141.021z" fill="#e9edf5"/></g><g><path d="m258.717 256.359 30.892-30.892c38.942-38.942 102.079-38.942 141.021 0l30.892 30.892-30.892 30.892c-38.942 38.942-102.079 38.942-141.021 0z" fill="#e9edf5"/></g><g><path d="m50.477 256.358 30.892-30.892c38.942-38.942 102.079-38.942 141.021 0l30.892 30.892-30.892 30.892c-38.942 38.942-102.079 38.942-141.021 0z" fill="#fff"/></g><g><path d="m257.922 254.438v-43.688c0-55.072 44.645-99.717 99.717-99.716h43.687v43.688c0 55.072-44.645 99.717-99.717 99.716z" fill="#dce1eb"/></g><g><path d="m110.674 401.686v-43.688c0-55.072 44.645-99.717 99.717-99.716h43.687v43.688c0 55.072-44.645 99.717-99.717 99.716z" fill="#f2f6fc"/></g><g><path d="m257.922 258.281h43.688c55.072 0 99.717 44.645 99.717 99.717v43.688h-43.688c-55.072 0-99.717-44.645-99.717-99.717z" fill="#dce1eb"/></g><g><path d="m110.673 111.032h43.688c55.072 0 99.717 44.645 99.717 99.717v43.688h-43.688c-55.072 0-99.717-44.645-99.717-99.717z" fill="#f2f6fc"/></g><g><g><g><g><g><g><circle cx="256" cy="255.988" fill="#ffce00" r="65.996"/></g></g></g></g></g></g><g><g><g><g><g><g><path d="m321.996 255.988c0-36.434-29.525-65.971-65.996-65.994v131.989c36.471-.023 65.996-29.561 65.996-65.995z" fill="#fdba12"/></g></g></g></g></g></g><g><g><g><g><g><g><circle cx="256" cy="255.988" fill="#fa0" r="37.346"/></g></g></g></g></g></g><g><g><g><g><g><g><path d="m293.346 255.988c0-20.611-16.698-37.322-37.346-37.345v74.69c20.648-.023 37.346-16.734 37.346-37.345z" fill="#ff9500"/></g></g></g></g></g></g></g></svg>